<?xml version="1.0" encoding="utf-8" standalone="no"?>
<!DOCTYPE svg PUBLIC "-//W3C//DTD SVG 1.1//EN"
  "http://www.w3.org/Graphics/SVG/1.1/DTD/svg11.dtd">
<svg xmlns:xlink="http://www.w3.org/1999/xlink" width="549.665625pt" height="492.840937pt" viewBox="0 0 549.665625 492.840937" xmlns="http://www.w3.org/2000/svg" version="1.1">
 <metadata>
  <rdf:RDF xmlns:dc="http://purl.org/dc/elements/1.1/" xmlns:cc="http://creativecommons.org/ns#" xmlns:rdf="http://www.w3.org/1999/02/22-rdf-syntax-ns#">
   <cc:Work>
    <dc:type rdf:resource="http://purl.org/dc/dcmitype/StillImage"/>
    <dc:date>2025-08-13T18:17:24.407435</dc:date>
    <dc:format>image/svg+xml</dc:format>
    <dc:creator>
     <cc:Agent>
      <dc:title>Matplotlib v3.10.0, https://matplotlib.org/</dc:title>
     </cc:Agent>
    </dc:creator>
   </cc:Work>
  </rdf:RDF>
 </metadata>
 <defs>
  <style type="text/css">*{stroke-linejoin: round; stroke-linecap: butt}</style>
 </defs>
 <g id="figure_1">
  <g id="patch_1">
   <path d="M 0 492.840937 
L 549.665625 492.840937 
L 549.665625 0 
L 0 0 
L 0 492.840937 
z
" style="fill: none"/>
  </g>
  <g id="axes_1">
   <g id="patch_2">
    <path d="M 23.803438 216.3175 
L 441.423438 216.3175 
L 441.423438 38.6295 
L 23.803438 38.6295 
L 23.803438 216.3175 
z
" style="fill: none"/>
   </g>
   <g id="FillBetweenPolyCollection_1">
    <defs>
     <path id="mfacbb09b4a" d="M 23.803438 -335.752771 
L 23.803438 -424.596771 
L 58.605104 -424.596771 
L 93.406771 -424.596771 
L 128.208438 -424.596771 
L 163.010104 -424.596771 
L 197.811771 -424.596771 
L 232.613438 -424.596771 
L 232.613438 -424.596771 
L 267.415104 -424.596771 
L 302.216771 -424.596771 
L 337.018438 -424.596771 
L 337.018438 -424.596771 
L 371.820104 -424.596771 
L 441.423438 -424.596771 
L 441.423438 -335.752771 
L 441.423438 -335.752771 
L 371.820104 -335.752771 
L 337.018438 -335.752771 
L 337.018438 -335.752771 
L 302.216771 -335.752771 
L 267.415104 -335.752771 
L 232.613438 -335.752771 
L 232.613438 -335.752771 
L 197.811771 -335.752771 
L 163.010104 -335.752771 
L 128.208438 -335.752771 
L 93.406771 -335.752771 
L 58.605104 -335.752771 
L 23.803438 -335.752771 
z
" style="stroke: #008000; stroke-opacity: 0.25"/>
    </defs>
    <g clip-path="url(#pba6fedf17b)">
     <use xlink:href="#mfacbb09b4a" x="0" y="492.840937" style="fill: #008000; fill-opacity: 0.25; stroke: #008000; stroke-opacity: 0.25"/>
    </g>
   </g>
   <g id="FillBetweenPolyCollection_2">
    <defs>
     <path id="m3d60f058f0" d="M 23.803438 -424.596771 
L 23.803438 -424.596771 
L 58.605104 -424.596771 
L 93.406771 -424.596771 
L 128.208438 -424.596771 
L 163.010104 -424.596771 
L 197.811771 -424.596771 
L 232.613438 -424.596771 
L 232.613438 -424.596771 
L 267.415104 -424.596771 
L 302.216771 -424.596771 
L 337.018438 -424.596771 
L 337.018438 -424.596771 
L 371.820104 -424.596771 
L 441.423438 -424.596771 
L 441.423438 -436.442638 
L 441.423438 -436.442638 
L 371.820104 -436.442638 
L 337.018438 -430.519704 
L 337.018438 -436.442638 
L 302.216771 -430.519704 
L 267.415104 -424.596771 
L 232.613438 -424.596771 
L 232.613438 -430.519704 
L 197.811771 -424.596771 
L 163.010104 -424.596771 
L 128.208438 -424.596771 
L 93.406771 -424.596771 
L 58.605104 -424.596771 
L 23.803438 -424.596771 
z
" style="stroke: #ff0000; stroke-opacity: 0.25"/>
    </defs>
    <g clip-path="url(#pba6fedf17b)">
     <use xlink:href="#m3d60f058f0" x="0" y="492.840937" style="fill: #ff0000; fill-opacity: 0.25; stroke: #ff0000; stroke-opacity: 0.25"/>
    </g>
   </g>
   <g id="matplotlib.axis_1">
    <g id="xtick_1">
     <g id="line2d_1">
      <path d="M 23.803438 216.3175 
L 23.803438 38.6295 
" clip-path="url(#pba6fedf17b)" style="fill: none; stroke-dasharray: 0.8,1.32; stroke-dashoffset: 0; stroke: #ffffff; stroke-width: 0.8"/>
     </g>
     <g id="line2d_2">
      <defs>
       <path id="m28f1d0f043" d="M 0 0 
L 0 3.5 
" style="stroke: #ffffff; stroke-width: 0.8"/>
      </defs>
      <g>
       <use xlink:href="#m28f1d0f043" x="23.803438" y="216.3175" style="fill: #ffffff; stroke: #ffffff; stroke-width: 0.8"/>
      </g>
     </g>
    </g>
    <g id="xtick_2">
     <g id="line2d_3">
      <path d="M 93.406771 216.3175 
L 93.406771 38.6295 
" clip-path="url(#pba6fedf17b)" style="fill: none; stroke-dasharray: 0.8,1.32; stroke-dashoffset: 0; stroke: #ffffff; stroke-width: 0.8"/>
     </g>
     <g id="line2d_4">
      <g>
       <use xlink:href="#m28f1d0f043" x="93.406771" y="216.3175" style="fill: #ffffff; stroke: #ffffff; stroke-width: 0.8"/>
      </g>
     </g>
    </g>
    <g id="xtick_3">
     <g id="line2d_5">
      <path d="M 163.010104 216.3175 
L 163.010104 38.6295 
" clip-path="url(#pba6fedf17b)" style="fill: none; stroke-dasharray: 0.8,1.32; stroke-dashoffset: 0; stroke: #ffffff; stroke-width: 0.8"/>
     </g>
     <g id="line2d_6">
      <g>
       <use xlink:href="#m28f1d0f043" x="163.010104" y="216.3175" style="fill: #ffffff; stroke: #ffffff; stroke-width: 0.8"/>
      </g>
     </g>
    </g>
    <g id="xtick_4">
     <g id="line2d_7">
      <path d="M 232.613438 216.3175 
L 232.613438 38.6295 
" clip-path="url(#pba6fedf17b)" style="fill: none; stroke-dasharray: 0.8,1.32; stroke-dashoffset: 0; stroke: #ffffff; stroke-width: 0.8"/>
     </g>
     <g id="line2d_8">
      <g>
       <use xlink:href="#m28f1d0f043" x="232.613438" y="216.3175" style="fill: #ffffff; stroke: #ffffff; stroke-width: 0.8"/>
      </g>
     </g>
    </g>
    <g id="xtick_5">
     <g id="line2d_9">
      <path d="M 302.216771 216.3175 
L 302.216771 38.6295 
" clip-path="url(#pba6fedf17b)" style="fill: none; stroke-dasharray: 0.8,1.32; stroke-dashoffset: 0; stroke: #ffffff; stroke-width: 0.8"/>
     </g>
     <g id="line2d_10">
      <g>
       <use xlink:href="#m28f1d0f043" x="302.216771" y="216.3175" style="fill: #ffffff; stroke: #ffffff; stroke-width: 0.8"/>
      </g>
     </g>
    </g>
    <g id="xtick_6">
     <g id="line2d_11">
      <path d="M 371.820104 216.3175 
L 371.820104 38.6295 
" clip-path="url(#pba6fedf17b)" style="fill: none; stroke-dasharray: 0.8,1.32; stroke-dashoffset: 0; stroke: #ffffff; stroke-width: 0.8"/>
     </g>
     <g id="line2d_12">
      <g>
       <use xlink:href="#m28f1d0f043" x="371.820104" y="216.3175" style="fill: #ffffff; stroke: #ffffff; stroke-width: 0.8"/>
      </g>
     </g>
    </g>
    <g id="xtick_7">
     <g id="line2d_13">
      <path d="M 441.423438 216.3175 
L 441.423438 38.6295 
" clip-path="url(#pba6fedf17b)" style="fill: none; stroke-dasharray: 0.8,1.32; stroke-dashoffset: 0; stroke: #ffffff; stroke-width: 0.8"/>
     </g>
     <g id="line2d_14">
      <g>
       <use xlink:href="#m28f1d0f043" x="441.423438" y="216.3175" style="fill: #ffffff; stroke: #ffffff; stroke-width: 0.8"/>
      </g>
     </g>
    </g>
    <g id="text_1">
     <!-- Time -->
     <g style="fill: #ffffff" transform="translate(217.321719 237.338437) scale(0.14 -0.14)">
      <defs>
       <path id="ArialMT-54" d="M 1659 0 
L 1659 4041 
L 150 4041 
L 150 4581 
L 3781 4581 
L 3781 4041 
L 2266 4041 
L 2266 0 
L 1659 0 
z
" transform="scale(0.015625)"/>
       <path id="ArialMT-69" d="M 425 3934 
L 425 4581 
L 988 4581 
L 988 3934 
L 425 3934 
z
M 425 0 
L 425 3319 
L 988 3319 
L 988 0 
L 425 0 
z
" transform="scale(0.015625)"/>
       <path id="ArialMT-6d" d="M 422 0 
L 422 3319 
L 925 3319 
L 925 2853 
Q 1081 3097 1340 3245 
Q 1600 3394 1931 3394 
Q 2300 3394 2536 3241 
Q 2772 3088 2869 2813 
Q 3263 3394 3894 3394 
Q 4388 3394 4653 3120 
Q 4919 2847 4919 2278 
L 4919 0 
L 4359 0 
L 4359 2091 
Q 4359 2428 4304 2576 
Q 4250 2725 4106 2815 
Q 3963 2906 3769 2906 
Q 3419 2906 3187 2673 
Q 2956 2441 2956 1928 
L 2956 0 
L 2394 0 
L 2394 2156 
Q 2394 2531 2256 2718 
Q 2119 2906 1806 2906 
Q 1569 2906 1367 2781 
Q 1166 2656 1075 2415 
Q 984 2175 984 1722 
L 984 0 
L 422 0 
z
" transform="scale(0.015625)"/>
       <path id="ArialMT-65" d="M 2694 1069 
L 3275 997 
Q 3138 488 2766 206 
Q 2394 -75 1816 -75 
Q 1088 -75 661 373 
Q 234 822 234 1631 
Q 234 2469 665 2931 
Q 1097 3394 1784 3394 
Q 2450 3394 2872 2941 
Q 3294 2488 3294 1666 
Q 3294 1616 3291 1516 
L 816 1516 
Q 847 969 1125 678 
Q 1403 388 1819 388 
Q 2128 388 2347 550 
Q 2566 713 2694 1069 
z
M 847 1978 
L 2700 1978 
Q 2663 2397 2488 2606 
Q 2219 2931 1791 2931 
Q 1403 2931 1139 2672 
Q 875 2413 847 1978 
z
" transform="scale(0.015625)"/>
      </defs>
      <use xlink:href="#ArialMT-54"/>
      <use xlink:href="#ArialMT-69" transform="translate(57.333984 0)"/>
      <use xlink:href="#ArialMT-6d" transform="translate(79.550781 0)"/>
      <use xlink:href="#ArialMT-65" transform="translate(162.851562 0)"/>
     </g>
    </g>
   </g>
   <g id="matplotlib.axis_2">
    <g id="ytick_1">
     <g id="line2d_15">
      <path d="M 23.803438 216.3175 
L 441.423438 216.3175 
" clip-path="url(#pba6fedf17b)" style="fill: none; stroke-dasharray: 0.8,1.32; stroke-dashoffset: 0; stroke: #ffffff; stroke-width: 0.8"/>
     </g>
     <g id="line2d_16">
      <defs>
       <path id="m89cef982ba" d="M 0 0 
L -3.5 0 
" style="stroke: #ffffff; stroke-width: 0.8"/>
      </defs>
      <g>
       <use xlink:href="#m89cef982ba" x="23.803438" y="216.3175" style="fill: #ffffff; stroke: #ffffff; stroke-width: 0.8"/>
      </g>
     </g>
    </g>
    <g id="ytick_2">
     <g id="line2d_17">
      <path d="M 23.803438 186.702833 
L 441.423438 186.702833 
" clip-path="url(#pba6fedf17b)" style="fill: none; stroke-dasharray: 0.8,1.32; stroke-dashoffset: 0; stroke: #ffffff; stroke-width: 0.8"/>
     </g>
     <g id="line2d_18">
      <g>
       <use xlink:href="#m89cef982ba" x="23.803438" y="186.702833" style="fill: #ffffff; stroke: #ffffff; stroke-width: 0.8"/>
      </g>
     </g>
    </g>
    <g id="ytick_3">
     <g id="line2d_19">
      <path d="M 23.803438 157.088167 
L 441.423438 157.088167 
" clip-path="url(#pba6fedf17b)" style="fill: none; stroke-dasharray: 0.8,1.32; stroke-dashoffset: 0; stroke: #ffffff; stroke-width: 0.8"/>
     </g>
     <g id="line2d_20">
      <g>
       <use xlink:href="#m89cef982ba" x="23.803438" y="157.088167" style="fill: #ffffff; stroke: #ffffff; stroke-width: 0.8"/>
      </g>
     </g>
    </g>
    <g id="ytick_4">
     <g id="line2d_21">
      <path d="M 23.803438 127.4735 
L 441.423438 127.4735 
" clip-path="url(#pba6fedf17b)" style="fill: none; stroke-dasharray: 0.8,1.32; stroke-dashoffset: 0; stroke: #ffffff; stroke-width: 0.8"/>
     </g>
     <g id="line2d_22">
      <g>
       <use xlink:href="#m89cef982ba" x="23.803438" y="127.4735" style="fill: #ffffff; stroke: #ffffff; stroke-width: 0.8"/>
      </g>
     </g>
    </g>
    <g id="ytick_5">
     <g id="line2d_23">
      <path d="M 23.803438 97.858833 
L 441.423438 97.858833 
" clip-path="url(#pba6fedf17b)" style="fill: none; stroke-dasharray: 0.8,1.32; stroke-dashoffset: 0; stroke: #ffffff; stroke-width: 0.8"/>
     </g>
     <g id="line2d_24">
      <g>
       <use xlink:href="#m89cef982ba" x="23.803438" y="97.858833" style="fill: #ffffff; stroke: #ffffff; stroke-width: 0.8"/>
      </g>
     </g>
    </g>
    <g id="ytick_6">
     <g id="line2d_25">
      <path d="M 23.803438 68.244167 
L 441.423438 68.244167 
" clip-path="url(#pba6fedf17b)" style="fill: none; stroke-dasharray: 0.8,1.32; stroke-dashoffset: 0; stroke: #ffffff; stroke-width: 0.8"/>
     </g>
     <g id="line2d_26">
      <g>
       <use xlink:href="#m89cef982ba" x="23.803438" y="68.244167" style="fill: #ffffff; stroke: #ffffff; stroke-width: 0.8"/>
      </g>
     </g>
    </g>
    <g id="ytick_7">
     <g id="line2d_27">
      <path d="M 23.803438 38.6295 
L 441.423438 38.6295 
" clip-path="url(#pba6fedf17b)" style="fill: none; stroke-dasharray: 0.8,1.32; stroke-dashoffset: 0; stroke: #ffffff; stroke-width: 0.8"/>
     </g>
     <g id="line2d_28">
      <g>
       <use xlink:href="#m89cef982ba" x="23.803438" y="38.6295" style="fill: #ffffff; stroke: #ffffff; stroke-width: 0.8"/>
      </g>
     </g>
    </g>
    <g id="text_2">
     <!-- EMW -->
     <g style="fill: #ffffff" transform="translate(10.020937 144.580844) rotate(-90) scale(0.14 -0.14)">
      <defs>
       <path id="ArialMT-45" d="M 506 0 
L 506 4581 
L 3819 4581 
L 3819 4041 
L 1113 4041 
L 1113 2638 
L 3647 2638 
L 3647 2100 
L 1113 2100 
L 1113 541 
L 3925 541 
L 3925 0 
L 506 0 
z
" transform="scale(0.015625)"/>
       <path id="ArialMT-4d" d="M 475 0 
L 475 4581 
L 1388 4581 
L 2472 1338 
Q 2622 884 2691 659 
Q 2769 909 2934 1394 
L 4031 4581 
L 4847 4581 
L 4847 0 
L 4263 0 
L 4263 3834 
L 2931 0 
L 2384 0 
L 1059 3900 
L 1059 0 
L 475 0 
z
" transform="scale(0.015625)"/>
       <path id="ArialMT-57" d="M 1294 0 
L 78 4581 
L 700 4581 
L 1397 1578 
Q 1509 1106 1591 641 
Q 1766 1375 1797 1488 
L 2669 4581 
L 3400 4581 
L 4056 2263 
Q 4303 1400 4413 641 
Q 4500 1075 4641 1638 
L 5359 4581 
L 5969 4581 
L 4713 0 
L 4128 0 
L 3163 3491 
Q 3041 3928 3019 4028 
Q 2947 3713 2884 3491 
L 1913 0 
L 1294 0 
z
" transform="scale(0.015625)"/>
      </defs>
      <use xlink:href="#ArialMT-45"/>
      <use xlink:href="#ArialMT-4d" transform="translate(66.699219 0)"/>
      <use xlink:href="#ArialMT-57" transform="translate(150 0)"/>
     </g>
    </g>
   </g>
   <g id="line2d_29">
    <path d="M 23.803438 68.244167 
L 58.605104 68.244167 
L 93.406771 68.244167 
L 128.208438 68.244167 
L 163.010104 68.244167 
L 197.811771 68.244167 
L 232.613438 68.244167 
L 232.613438 68.244167 
L 267.415104 68.244167 
L 302.216771 68.244167 
L 337.018438 68.244167 
L 337.018438 68.244167 
L 371.820104 68.244167 
L 441.423438 68.244167 
" clip-path="url(#pba6fedf17b)" style="fill: none; stroke-dasharray: 9.25,4; stroke-dashoffset: 0; stroke: #595959; stroke-width: 2.5"/>
   </g>
   <g id="line2d_30">
    <path d="M 23.803438 157.088167 
L 58.605104 157.088167 
L 93.406771 157.088167 
L 128.208438 157.088167 
L 163.010104 157.088167 
L 197.811771 157.088167 
L 232.613438 157.088167 
L 232.613438 157.088167 
L 267.415104 157.088167 
L 302.216771 157.088167 
L 337.018438 157.088167 
L 337.018438 157.088167 
L 371.820104 157.088167 
L 441.423438 157.088167 
" clip-path="url(#pba6fedf17b)" style="fill: none; stroke-dasharray: 9.25,4; stroke-dashoffset: 0; stroke: #ababab; stroke-width: 2.5"/>
   </g>
   <g id="line2d_31">
    <path d="M 23.803438 127.4735 
L 58.605104 127.4735 
L 93.406771 127.4735 
L 128.208438 127.4735 
L 163.010104 121.550567 
L 197.811771 115.627633 
L 232.613438 109.7047 
L 232.613438 109.7047 
L 267.415104 103.781767 
L 302.216771 97.858833 
L 337.018438 91.9359 
L 337.018438 91.9359 
L 371.820104 86.012967 
L 441.423438 86.012967 
" clip-path="url(#pba6fedf17b)" style="fill: none; stroke: #006ba4; stroke-width: 1.5; stroke-linecap: square"/>
   </g>
   <g id="line2d_32">
    <path d="M 23.803438 80.090033 
L 58.605104 80.090033 
L 93.406771 80.090033 
L 128.208438 80.090033 
L 163.010104 74.1671 
L 197.811771 68.244167 
L 232.613438 62.321233 
L 232.613438 74.1671 
L 267.415104 68.244167 
L 302.216771 62.321233 
L 337.018438 56.3983 
L 337.018438 62.321233 
L 371.820104 56.3983 
L 441.423438 56.3983 
" clip-path="url(#pba6fedf17b)" style="fill: none; stroke: #ff800e; stroke-width: 1.5; stroke-linecap: square"/>
   </g>
   <g id="patch_3">
    <path d="M 23.803438 216.3175 
L 23.803438 38.6295 
" style="fill: none; stroke: #ffffff; stroke-width: 0.8; stroke-linejoin: miter; stroke-linecap: square"/>
   </g>
   <g id="patch_4">
    <path d="M 441.423438 216.3175 
L 441.423438 38.6295 
" style="fill: none; stroke: #ffffff; stroke-width: 0.8; stroke-linejoin: miter; stroke-linecap: square"/>
   </g>
   <g id="patch_5">
    <path d="M 23.803438 216.3175 
L 441.423438 216.3175 
" style="fill: none; stroke: #ffffff; stroke-width: 0.8; stroke-linejoin: miter; stroke-linecap: square"/>
   </g>
   <g id="patch_6">
    <path d="M 23.803438 38.6295 
L 441.423438 38.6295 
" style="fill: none; stroke: #ffffff; stroke-width: 0.8; stroke-linejoin: miter; stroke-linecap: square"/>
   </g>
   <g id="text_3">
    <!-- SH Min. -->
    <g style="fill: #595959" transform="translate(23.803438 58.94644) scale(0.14 -0.14)">
     <defs>
      <path id="ArialMT-53" d="M 288 1472 
L 859 1522 
Q 900 1178 1048 958 
Q 1197 738 1509 602 
Q 1822 466 2213 466 
Q 2559 466 2825 569 
Q 3091 672 3220 851 
Q 3350 1031 3350 1244 
Q 3350 1459 3225 1620 
Q 3100 1781 2813 1891 
Q 2628 1963 1997 2114 
Q 1366 2266 1113 2400 
Q 784 2572 623 2826 
Q 463 3081 463 3397 
Q 463 3744 659 4045 
Q 856 4347 1234 4503 
Q 1613 4659 2075 4659 
Q 2584 4659 2973 4495 
Q 3363 4331 3572 4012 
Q 3781 3694 3797 3291 
L 3216 3247 
Q 3169 3681 2898 3903 
Q 2628 4125 2100 4125 
Q 1550 4125 1298 3923 
Q 1047 3722 1047 3438 
Q 1047 3191 1225 3031 
Q 1400 2872 2139 2705 
Q 2878 2538 3153 2413 
Q 3553 2228 3743 1945 
Q 3934 1663 3934 1294 
Q 3934 928 3725 604 
Q 3516 281 3123 101 
Q 2731 -78 2241 -78 
Q 1619 -78 1198 103 
Q 778 284 539 648 
Q 300 1013 288 1472 
z
" transform="scale(0.015625)"/>
      <path id="ArialMT-48" d="M 513 0 
L 513 4581 
L 1119 4581 
L 1119 2700 
L 3500 2700 
L 3500 4581 
L 4106 4581 
L 4106 0 
L 3500 0 
L 3500 2159 
L 1119 2159 
L 1119 0 
L 513 0 
z
" transform="scale(0.015625)"/>
      <path id="ArialMT-20" transform="scale(0.015625)"/>
      <path id="ArialMT-6e" d="M 422 0 
L 422 3319 
L 928 3319 
L 928 2847 
Q 1294 3394 1984 3394 
Q 2284 3394 2536 3286 
Q 2788 3178 2913 3003 
Q 3038 2828 3088 2588 
Q 3119 2431 3119 2041 
L 3119 0 
L 2556 0 
L 2556 2019 
Q 2556 2363 2490 2533 
Q 2425 2703 2258 2804 
Q 2091 2906 1866 2906 
Q 1506 2906 1245 2678 
Q 984 2450 984 1813 
L 984 0 
L 422 0 
z
" transform="scale(0.015625)"/>
      <path id="ArialMT-2e" d="M 581 0 
L 581 641 
L 1222 641 
L 1222 0 
L 581 0 
z
" transform="scale(0.015625)"/>
     </defs>
     <use xlink:href="#ArialMT-53"/>
     <use xlink:href="#ArialMT-48" transform="translate(66.699219 0)"/>
     <use xlink:href="#ArialMT-20" transform="translate(138.916016 0)"/>
     <use xlink:href="#ArialMT-4d" transform="translate(166.699219 0)"/>
     <use xlink:href="#ArialMT-69" transform="translate(250 0)"/>
     <use xlink:href="#ArialMT-6e" transform="translate(272.216797 0)"/>
     <use xlink:href="#ArialMT-2e" transform="translate(327.832031 0)"/>
    </g>
   </g>
   <g id="text_4">
    <!-- PP -->
    <g style="fill: #ababab" transform="translate(23.803438 173.180111) scale(0.14 -0.14)">
     <defs>
      <path id="ArialMT-50" d="M 494 0 
L 494 4581 
L 2222 4581 
Q 2678 4581 2919 4538 
Q 3256 4481 3484 4323 
Q 3713 4166 3852 3881 
Q 3991 3597 3991 3256 
Q 3991 2672 3619 2267 
Q 3247 1863 2275 1863 
L 1100 1863 
L 1100 0 
L 494 0 
z
M 1100 2403 
L 2284 2403 
Q 2872 2403 3119 2622 
Q 3366 2841 3366 3238 
Q 3366 3525 3220 3729 
Q 3075 3934 2838 4000 
Q 2684 4041 2272 4041 
L 1100 4041 
L 1100 2403 
z
" transform="scale(0.015625)"/>
     </defs>
     <use xlink:href="#ArialMT-50"/>
     <use xlink:href="#ArialMT-50" transform="translate(66.699219 0)"/>
    </g>
   </g>
   <g id="text_5">
    <!-- Conventional Cementing Job -->
    <g style="fill: #ffffff" transform="translate(117.049219 13.103438) scale(0.18 -0.18)">
     <defs>
      <path id="ArialMT-43" d="M 3763 1606 
L 4369 1453 
Q 4178 706 3683 314 
Q 3188 -78 2472 -78 
Q 1731 -78 1267 223 
Q 803 525 561 1097 
Q 319 1669 319 2325 
Q 319 3041 592 3573 
Q 866 4106 1370 4382 
Q 1875 4659 2481 4659 
Q 3169 4659 3637 4309 
Q 4106 3959 4291 3325 
L 3694 3184 
Q 3534 3684 3231 3912 
Q 2928 4141 2469 4141 
Q 1941 4141 1586 3887 
Q 1231 3634 1087 3207 
Q 944 2781 944 2328 
Q 944 1744 1114 1308 
Q 1284 872 1643 656 
Q 2003 441 2422 441 
Q 2931 441 3284 734 
Q 3638 1028 3763 1606 
z
" transform="scale(0.015625)"/>
      <path id="ArialMT-6f" d="M 213 1659 
Q 213 2581 725 3025 
Q 1153 3394 1769 3394 
Q 2453 3394 2887 2945 
Q 3322 2497 3322 1706 
Q 3322 1066 3130 698 
Q 2938 331 2570 128 
Q 2203 -75 1769 -75 
Q 1072 -75 642 372 
Q 213 819 213 1659 
z
M 791 1659 
Q 791 1022 1069 705 
Q 1347 388 1769 388 
Q 2188 388 2466 706 
Q 2744 1025 2744 1678 
Q 2744 2294 2464 2611 
Q 2184 2928 1769 2928 
Q 1347 2928 1069 2612 
Q 791 2297 791 1659 
z
" transform="scale(0.015625)"/>
      <path id="ArialMT-76" d="M 1344 0 
L 81 3319 
L 675 3319 
L 1388 1331 
Q 1503 1009 1600 663 
Q 1675 925 1809 1294 
L 2547 3319 
L 3125 3319 
L 1869 0 
L 1344 0 
z
" transform="scale(0.015625)"/>
      <path id="ArialMT-74" d="M 1650 503 
L 1731 6 
Q 1494 -44 1306 -44 
Q 1000 -44 831 53 
Q 663 150 594 308 
Q 525 466 525 972 
L 525 2881 
L 113 2881 
L 113 3319 
L 525 3319 
L 525 4141 
L 1084 4478 
L 1084 3319 
L 1650 3319 
L 1650 2881 
L 1084 2881 
L 1084 941 
Q 1084 700 1114 631 
Q 1144 563 1211 522 
Q 1278 481 1403 481 
Q 1497 481 1650 503 
z
" transform="scale(0.015625)"/>
      <path id="ArialMT-61" d="M 2588 409 
Q 2275 144 1986 34 
Q 1697 -75 1366 -75 
Q 819 -75 525 192 
Q 231 459 231 875 
Q 231 1119 342 1320 
Q 453 1522 633 1644 
Q 813 1766 1038 1828 
Q 1203 1872 1538 1913 
Q 2219 1994 2541 2106 
Q 2544 2222 2544 2253 
Q 2544 2597 2384 2738 
Q 2169 2928 1744 2928 
Q 1347 2928 1158 2789 
Q 969 2650 878 2297 
L 328 2372 
Q 403 2725 575 2942 
Q 747 3159 1072 3276 
Q 1397 3394 1825 3394 
Q 2250 3394 2515 3294 
Q 2781 3194 2906 3042 
Q 3031 2891 3081 2659 
Q 3109 2516 3109 2141 
L 3109 1391 
Q 3109 606 3145 398 
Q 3181 191 3288 0 
L 2700 0 
Q 2613 175 2588 409 
z
M 2541 1666 
Q 2234 1541 1622 1453 
Q 1275 1403 1131 1340 
Q 988 1278 909 1158 
Q 831 1038 831 891 
Q 831 666 1001 516 
Q 1172 366 1500 366 
Q 1825 366 2078 508 
Q 2331 650 2450 897 
Q 2541 1088 2541 1459 
L 2541 1666 
z
" transform="scale(0.015625)"/>
      <path id="ArialMT-6c" d="M 409 0 
L 409 4581 
L 972 4581 
L 972 0 
L 409 0 
z
" transform="scale(0.015625)"/>
      <path id="ArialMT-67" d="M 319 -275 
L 866 -356 
Q 900 -609 1056 -725 
Q 1266 -881 1628 -881 
Q 2019 -881 2231 -725 
Q 2444 -569 2519 -288 
Q 2563 -116 2559 434 
Q 2191 0 1641 0 
Q 956 0 581 494 
Q 206 988 206 1678 
Q 206 2153 378 2554 
Q 550 2956 876 3175 
Q 1203 3394 1644 3394 
Q 2231 3394 2613 2919 
L 2613 3319 
L 3131 3319 
L 3131 450 
Q 3131 -325 2973 -648 
Q 2816 -972 2473 -1159 
Q 2131 -1347 1631 -1347 
Q 1038 -1347 672 -1080 
Q 306 -813 319 -275 
z
M 784 1719 
Q 784 1066 1043 766 
Q 1303 466 1694 466 
Q 2081 466 2343 764 
Q 2606 1063 2606 1700 
Q 2606 2309 2336 2618 
Q 2066 2928 1684 2928 
Q 1309 2928 1046 2623 
Q 784 2319 784 1719 
z
" transform="scale(0.015625)"/>
      <path id="ArialMT-4a" d="M 184 1300 
L 731 1375 
Q 753 850 928 656 
Q 1103 463 1413 463 
Q 1641 463 1806 567 
Q 1972 672 2034 851 
Q 2097 1031 2097 1425 
L 2097 4581 
L 2703 4581 
L 2703 1459 
Q 2703 884 2564 568 
Q 2425 253 2123 87 
Q 1822 -78 1416 -78 
Q 813 -78 492 269 
Q 172 616 184 1300 
z
" transform="scale(0.015625)"/>
      <path id="ArialMT-62" d="M 941 0 
L 419 0 
L 419 4581 
L 981 4581 
L 981 2947 
Q 1338 3394 1891 3394 
Q 2197 3394 2470 3270 
Q 2744 3147 2920 2923 
Q 3097 2700 3197 2384 
Q 3297 2069 3297 1709 
Q 3297 856 2875 390 
Q 2453 -75 1863 -75 
Q 1275 -75 941 416 
L 941 0 
z
M 934 1684 
Q 934 1088 1097 822 
Q 1363 388 1816 388 
Q 2184 388 2453 708 
Q 2722 1028 2722 1663 
Q 2722 2313 2464 2622 
Q 2206 2931 1841 2931 
Q 1472 2931 1203 2611 
Q 934 2291 934 1684 
z
" transform="scale(0.015625)"/>
     </defs>
     <use xlink:href="#ArialMT-43"/>
     <use xlink:href="#ArialMT-6f" transform="translate(72.216797 0)"/>
     <use xlink:href="#ArialMT-6e" transform="translate(127.832031 0)"/>
     <use xlink:href="#ArialMT-76" transform="translate(183.447266 0)"/>
     <use xlink:href="#ArialMT-65" transform="translate(233.447266 0)"/>
     <use xlink:href="#ArialMT-6e" transform="translate(289.0625 0)"/>
     <use xlink:href="#ArialMT-74" transform="translate(344.677734 0)"/>
     <use xlink:href="#ArialMT-69" transform="translate(372.460938 0)"/>
     <use xlink:href="#ArialMT-6f" transform="translate(394.677734 0)"/>
     <use xlink:href="#ArialMT-6e" transform="translate(450.292969 0)"/>
     <use xlink:href="#ArialMT-61" transform="translate(505.908203 0)"/>
     <use xlink:href="#ArialMT-6c" transform="translate(561.523438 0)"/>
     <use xlink:href="#ArialMT-20" transform="translate(583.740234 0)"/>
     <use xlink:href="#ArialMT-43" transform="translate(611.523438 0)"/>
     <use xlink:href="#ArialMT-65" transform="translate(683.740234 0)"/>
     <use xlink:href="#ArialMT-6d" transform="translate(739.355469 0)"/>
     <use xlink:href="#ArialMT-65" transform="translate(822.65625 0)"/>
     <use xlink:href="#ArialMT-6e" transform="translate(878.271484 0)"/>
     <use xlink:href="#ArialMT-74" transform="translate(933.886719 0)"/>
     <use xlink:href="#ArialMT-69" transform="translate(961.669922 0)"/>
     <use xlink:href="#ArialMT-6e" transform="translate(983.886719 0)"/>
     <use xlink:href="#ArialMT-67" transform="translate(1039.501953 0)"/>
     <use xlink:href="#ArialMT-20" transform="translate(1095.117188 0)"/>
     <use xlink:href="#ArialMT-4a" transform="translate(1122.900391 0)"/>
     <use xlink:href="#ArialMT-6f" transform="translate(1172.900391 0)"/>
     <use xlink:href="#ArialMT-62" transform="translate(1228.515625 0)"/>
    </g>
    <!-- (Overbalanced Fluids) -->
    <g style="fill: #ffffff" transform="translate(144.082969 32.6295) scale(0.18 -0.18)">
     <defs>
      <path id="ArialMT-28" d="M 1497 -1347 
Q 1031 -759 709 28 
Q 388 816 388 1659 
Q 388 2403 628 3084 
Q 909 3875 1497 4659 
L 1900 4659 
Q 1522 4009 1400 3731 
Q 1209 3300 1100 2831 
Q 966 2247 966 1656 
Q 966 153 1900 -1347 
L 1497 -1347 
z
" transform="scale(0.015625)"/>
      <path id="ArialMT-4f" d="M 309 2231 
Q 309 3372 921 4017 
Q 1534 4663 2503 4663 
Q 3138 4663 3647 4359 
Q 4156 4056 4423 3514 
Q 4691 2972 4691 2284 
Q 4691 1588 4409 1038 
Q 4128 488 3612 205 
Q 3097 -78 2500 -78 
Q 1853 -78 1343 234 
Q 834 547 571 1087 
Q 309 1628 309 2231 
z
M 934 2222 
Q 934 1394 1379 917 
Q 1825 441 2497 441 
Q 3181 441 3623 922 
Q 4066 1403 4066 2288 
Q 4066 2847 3877 3264 
Q 3688 3681 3323 3911 
Q 2959 4141 2506 4141 
Q 1863 4141 1398 3698 
Q 934 3256 934 2222 
z
" transform="scale(0.015625)"/>
      <path id="ArialMT-72" d="M 416 0 
L 416 3319 
L 922 3319 
L 922 2816 
Q 1116 3169 1280 3281 
Q 1444 3394 1641 3394 
Q 1925 3394 2219 3213 
L 2025 2691 
Q 1819 2813 1613 2813 
Q 1428 2813 1281 2702 
Q 1134 2591 1072 2394 
Q 978 2094 978 1738 
L 978 0 
L 416 0 
z
" transform="scale(0.015625)"/>
      <path id="ArialMT-63" d="M 2588 1216 
L 3141 1144 
Q 3050 572 2676 248 
Q 2303 -75 1759 -75 
Q 1078 -75 664 370 
Q 250 816 250 1647 
Q 250 2184 428 2587 
Q 606 2991 970 3192 
Q 1334 3394 1763 3394 
Q 2303 3394 2647 3120 
Q 2991 2847 3088 2344 
L 2541 2259 
Q 2463 2594 2264 2762 
Q 2066 2931 1784 2931 
Q 1359 2931 1093 2626 
Q 828 2322 828 1663 
Q 828 994 1084 691 
Q 1341 388 1753 388 
Q 2084 388 2306 591 
Q 2528 794 2588 1216 
z
" transform="scale(0.015625)"/>
      <path id="ArialMT-64" d="M 2575 0 
L 2575 419 
Q 2259 -75 1647 -75 
Q 1250 -75 917 144 
Q 584 363 401 755 
Q 219 1147 219 1656 
Q 219 2153 384 2558 
Q 550 2963 881 3178 
Q 1213 3394 1622 3394 
Q 1922 3394 2156 3267 
Q 2391 3141 2538 2938 
L 2538 4581 
L 3097 4581 
L 3097 0 
L 2575 0 
z
M 797 1656 
Q 797 1019 1065 703 
Q 1334 388 1700 388 
Q 2069 388 2326 689 
Q 2584 991 2584 1609 
Q 2584 2291 2321 2609 
Q 2059 2928 1675 2928 
Q 1300 2928 1048 2622 
Q 797 2316 797 1656 
z
" transform="scale(0.015625)"/>
      <path id="ArialMT-46" d="M 525 0 
L 525 4581 
L 3616 4581 
L 3616 4041 
L 1131 4041 
L 1131 2622 
L 3281 2622 
L 3281 2081 
L 1131 2081 
L 1131 0 
L 525 0 
z
" transform="scale(0.015625)"/>
      <path id="ArialMT-75" d="M 2597 0 
L 2597 488 
Q 2209 -75 1544 -75 
Q 1250 -75 995 37 
Q 741 150 617 320 
Q 494 491 444 738 
Q 409 903 409 1263 
L 409 3319 
L 972 3319 
L 972 1478 
Q 972 1038 1006 884 
Q 1059 663 1231 536 
Q 1403 409 1656 409 
Q 1909 409 2131 539 
Q 2353 669 2445 892 
Q 2538 1116 2538 1541 
L 2538 3319 
L 3100 3319 
L 3100 0 
L 2597 0 
z
" transform="scale(0.015625)"/>
      <path id="ArialMT-73" d="M 197 991 
L 753 1078 
Q 800 744 1014 566 
Q 1228 388 1613 388 
Q 2000 388 2187 545 
Q 2375 703 2375 916 
Q 2375 1106 2209 1216 
Q 2094 1291 1634 1406 
Q 1016 1563 777 1677 
Q 538 1791 414 1992 
Q 291 2194 291 2438 
Q 291 2659 392 2848 
Q 494 3038 669 3163 
Q 800 3259 1026 3326 
Q 1253 3394 1513 3394 
Q 1903 3394 2198 3281 
Q 2494 3169 2634 2976 
Q 2775 2784 2828 2463 
L 2278 2388 
Q 2241 2644 2061 2787 
Q 1881 2931 1553 2931 
Q 1166 2931 1000 2803 
Q 834 2675 834 2503 
Q 834 2394 903 2306 
Q 972 2216 1119 2156 
Q 1203 2125 1616 2013 
Q 2213 1853 2448 1751 
Q 2684 1650 2818 1456 
Q 2953 1263 2953 975 
Q 2953 694 2789 445 
Q 2625 197 2315 61 
Q 2006 -75 1616 -75 
Q 969 -75 630 194 
Q 291 463 197 991 
z
" transform="scale(0.015625)"/>
      <path id="ArialMT-29" d="M 791 -1347 
L 388 -1347 
Q 1322 153 1322 1656 
Q 1322 2244 1188 2822 
Q 1081 3291 891 3722 
Q 769 4003 388 4659 
L 791 4659 
Q 1378 3875 1659 3084 
Q 1900 2403 1900 1659 
Q 1900 816 1576 28 
Q 1253 -759 791 -1347 
z
" transform="scale(0.015625)"/>
     </defs>
     <use xlink:href="#ArialMT-28"/>
     <use xlink:href="#ArialMT-4f" transform="translate(33.300781 0)"/>
     <use xlink:href="#ArialMT-76" transform="translate(111.083984 0)"/>
     <use xlink:href="#ArialMT-65" transform="translate(161.083984 0)"/>
     <use xlink:href="#ArialMT-72" transform="translate(216.699219 0)"/>
     <use xlink:href="#ArialMT-62" transform="translate(250 0)"/>
     <use xlink:href="#ArialMT-61" transform="translate(305.615234 0)"/>
     <use xlink:href="#ArialMT-6c" transform="translate(361.230469 0)"/>
     <use xlink:href="#ArialMT-61" transform="translate(383.447266 0)"/>
     <use xlink:href="#ArialMT-6e" transform="translate(439.0625 0)"/>
     <use xlink:href="#ArialMT-63" transform="translate(494.677734 0)"/>
     <use xlink:href="#ArialMT-65" transform="translate(544.677734 0)"/>
     <use xlink:href="#ArialMT-64" transform="translate(600.292969 0)"/>
     <use xlink:href="#ArialMT-20" transform="translate(655.908203 0)"/>
     <use xlink:href="#ArialMT-46" transform="translate(683.691406 0)"/>
     <use xlink:href="#ArialMT-6c" transform="translate(744.775391 0)"/>
     <use xlink:href="#ArialMT-75" transform="translate(766.992188 0)"/>
     <use xlink:href="#ArialMT-69" transform="translate(822.607422 0)"/>
     <use xlink:href="#ArialMT-64" transform="translate(844.824219 0)"/>
     <use xlink:href="#ArialMT-73" transform="translate(900.439453 0)"/>
     <use xlink:href="#ArialMT-29" transform="translate(950.439453 0)"/>
    </g>
   </g>
   <g id="legend_1">
    <g id="patch_7">
     <path d="M 448.423438 103.21075 
L 515.984375 103.21075 
Q 517.984375 103.21075 517.984375 101.21075 
L 517.984375 45.6295 
Q 517.984375 43.6295 515.984375 43.6295 
L 448.423438 43.6295 
Q 446.423438 43.6295 446.423438 45.6295 
L 446.423438 101.21075 
Q 446.423438 103.21075 448.423438 103.21075 
z
" style="fill: #181818; opacity: 0.8; stroke: #cccccc; stroke-linejoin: miter"/>
    </g>
    <g id="line2d_33">
     <path d="M 450.423438 51.287312 
L 460.423438 51.287312 
L 470.423438 51.287312 
" style="fill: none; stroke-dasharray: 9.25,4; stroke-dashoffset: 0; stroke: #595959; stroke-width: 2.5"/>
    </g>
    <g id="text_6">
     <!-- SH Min. -->
     <g style="fill: #ffffff" transform="translate(478.423438 54.787312) scale(0.1 -0.1)">
      <use xlink:href="#ArialMT-53"/>
      <use xlink:href="#ArialMT-48" transform="translate(66.699219 0)"/>
      <use xlink:href="#ArialMT-20" transform="translate(138.916016 0)"/>
      <use xlink:href="#ArialMT-4d" transform="translate(166.699219 0)"/>
      <use xlink:href="#ArialMT-69" transform="translate(250 0)"/>
      <use xlink:href="#ArialMT-6e" transform="translate(272.216797 0)"/>
      <use xlink:href="#ArialMT-2e" transform="translate(327.832031 0)"/>
     </g>
    </g>
    <g id="line2d_34">
     <path d="M 450.423438 65.432625 
L 460.423438 65.432625 
L 470.423438 65.432625 
" style="fill: none; stroke-dasharray: 9.25,4; stroke-dashoffset: 0; stroke: #ababab; stroke-width: 2.5"/>
    </g>
    <g id="text_7">
     <!-- PP -->
     <g style="fill: #ffffff" transform="translate(478.423438 68.932625) scale(0.1 -0.1)">
      <use xlink:href="#ArialMT-50"/>
      <use xlink:href="#ArialMT-50" transform="translate(66.699219 0)"/>
     </g>
    </g>
    <g id="line2d_35">
     <path d="M 450.423438 79.577937 
L 460.423438 79.577937 
L 470.423438 79.577937 
" style="fill: none; stroke: #006ba4; stroke-width: 1.5; stroke-linecap: square"/>
    </g>
    <g id="text_8">
     <!-- ESD -->
     <g style="fill: #ffffff" transform="translate(478.423438 83.077937) scale(0.1 -0.1)">
      <defs>
       <path id="ArialMT-44" d="M 494 0 
L 494 4581 
L 2072 4581 
Q 2606 4581 2888 4516 
Q 3281 4425 3559 4188 
Q 3922 3881 4101 3404 
Q 4281 2928 4281 2316 
Q 4281 1794 4159 1391 
Q 4038 988 3847 723 
Q 3656 459 3429 307 
Q 3203 156 2883 78 
Q 2563 0 2147 0 
L 494 0 
z
M 1100 541 
L 2078 541 
Q 2531 541 2789 625 
Q 3047 709 3200 863 
Q 3416 1078 3536 1442 
Q 3656 1806 3656 2325 
Q 3656 3044 3420 3430 
Q 3184 3816 2847 3947 
Q 2603 4041 2063 4041 
L 1100 4041 
L 1100 541 
z
" transform="scale(0.015625)"/>
      </defs>
      <use xlink:href="#ArialMT-45"/>
      <use xlink:href="#ArialMT-53" transform="translate(66.699219 0)"/>
      <use xlink:href="#ArialMT-44" transform="translate(133.398438 0)"/>
     </g>
    </g>
    <g id="line2d_36">
     <path d="M 450.423438 93.72325 
L 460.423438 93.72325 
L 470.423438 93.72325 
" style="fill: none; stroke: #ff800e; stroke-width: 1.5; stroke-linecap: square"/>
    </g>
    <g id="text_9">
     <!-- ECD -->
     <g style="fill: #ffffff" transform="translate(478.423438 97.22325) scale(0.1 -0.1)">
      <use xlink:href="#ArialMT-45"/>
      <use xlink:href="#ArialMT-43" transform="translate(66.699219 0)"/>
      <use xlink:href="#ArialMT-44" transform="translate(138.916016 0)"/>
     </g>
    </g>
   </g>
  </g>
  <g id="axes_2">
   <g id="patch_8">
    <path d="M 23.803438 469.0375 
L 441.423438 469.0375 
L 441.423438 291.3495 
L 23.803438 291.3495 
L 23.803438 469.0375 
z
" style="fill: none"/>
   </g>
   <g id="FillBetweenPolyCollection_3">
    <defs>
     <path id="ma01f46372e" d="M 23.803438 -83.032771 
L 23.803438 -171.876771 
L 58.605104 -171.876771 
L 93.406771 -171.876771 
L 128.208438 -171.876771 
L 163.010104 -171.876771 
L 197.811771 -171.876771 
L 197.811771 -171.876771 
L 232.613438 -171.876771 
L 267.415104 -171.876771 
L 267.415104 -171.876771 
L 302.216771 -171.876771 
L 337.018438 -171.876771 
L 337.018438 -171.876771 
L 371.820104 -171.876771 
L 441.423438 -171.876771 
L 441.423438 -83.032771 
L 441.423438 -83.032771 
L 371.820104 -83.032771 
L 337.018438 -83.032771 
L 337.018438 -83.032771 
L 302.216771 -83.032771 
L 267.415104 -83.032771 
L 267.415104 -83.032771 
L 232.613438 -83.032771 
L 197.811771 -83.032771 
L 197.811771 -83.032771 
L 163.010104 -83.032771 
L 128.208438 -83.032771 
L 93.406771 -83.032771 
L 58.605104 -83.032771 
L 23.803438 -83.032771 
z
" style="stroke: #008000; stroke-opacity: 0.25"/>
    </defs>
    <g clip-path="url(#pa7876398eb)">
     <use xlink:href="#ma01f46372e" x="0" y="492.840937" style="fill: #008000; fill-opacity: 0.25; stroke: #008000; stroke-opacity: 0.25"/>
    </g>
   </g>
   <g id="FillBetweenPolyCollection_4">
    <defs>
     <path id="mb8d66ae97f" d="M 23.803438 -171.876771 
L 23.803438 -171.876771 
L 58.605104 -171.876771 
L 93.406771 -171.876771 
L 128.208438 -171.876771 
L 163.010104 -171.876771 
L 197.811771 -171.876771 
L 197.811771 -171.876771 
L 232.613438 -171.876771 
L 267.415104 -171.876771 
L 267.415104 -171.876771 
L 302.216771 -171.876771 
L 337.018438 -171.876771 
L 337.018438 -171.876771 
L 371.820104 -171.876771 
L 441.423438 -171.876771 
L 441.423438 -171.876771 
L 441.423438 -171.876771 
L 371.820104 -171.876771 
L 337.018438 -171.876771 
L 337.018438 -171.876771 
L 302.216771 -171.876771 
L 267.415104 -171.876771 
L 267.415104 -171.876771 
L 232.613438 -171.876771 
L 197.811771 -171.876771 
L 197.811771 -171.876771 
L 163.010104 -171.876771 
L 128.208438 -171.876771 
L 93.406771 -171.876771 
L 58.605104 -171.876771 
L 23.803438 -171.876771 
z
" style="stroke: #ff0000; stroke-opacity: 0.25"/>
    </defs>
    <g clip-path="url(#pa7876398eb)">
     <use xlink:href="#mb8d66ae97f" x="0" y="492.840937" style="fill: #ff0000; fill-opacity: 0.25; stroke: #ff0000; stroke-opacity: 0.25"/>
    </g>
   </g>
   <g id="matplotlib.axis_3">
    <g id="xtick_8">
     <g id="line2d_37">
      <path d="M 23.803438 469.0375 
L 23.803438 291.3495 
" clip-path="url(#pa7876398eb)" style="fill: none; stroke-dasharray: 0.8,1.32; stroke-dashoffset: 0; stroke: #ffffff; stroke-width: 0.8"/>
     </g>
     <g id="line2d_38">
      <g>
       <use xlink:href="#m28f1d0f043" x="23.803438" y="469.0375" style="fill: #ffffff; stroke: #ffffff; stroke-width: 0.8"/>
      </g>
     </g>
    </g>
    <g id="xtick_9">
     <g id="line2d_39">
      <path d="M 93.406771 469.0375 
L 93.406771 291.3495 
" clip-path="url(#pa7876398eb)" style="fill: none; stroke-dasharray: 0.8,1.32; stroke-dashoffset: 0; stroke: #ffffff; stroke-width: 0.8"/>
     </g>
     <g id="line2d_40">
      <g>
       <use xlink:href="#m28f1d0f043" x="93.406771" y="469.0375" style="fill: #ffffff; stroke: #ffffff; stroke-width: 0.8"/>
      </g>
     </g>
    </g>
    <g id="xtick_10">
     <g id="line2d_41">
      <path d="M 163.010104 469.0375 
L 163.010104 291.3495 
" clip-path="url(#pa7876398eb)" style="fill: none; stroke-dasharray: 0.8,1.32; stroke-dashoffset: 0; stroke: #ffffff; stroke-width: 0.8"/>
     </g>
     <g id="line2d_42">
      <g>
       <use xlink:href="#m28f1d0f043" x="163.010104" y="469.0375" style="fill: #ffffff; stroke: #ffffff; stroke-width: 0.8"/>
      </g>
     </g>
    </g>
    <g id="xtick_11">
     <g id="line2d_43">
      <path d="M 232.613438 469.0375 
L 232.613438 291.3495 
" clip-path="url(#pa7876398eb)" style="fill: none; stroke-dasharray: 0.8,1.32; stroke-dashoffset: 0; stroke: #ffffff; stroke-width: 0.8"/>
     </g>
     <g id="line2d_44">
      <g>
       <use xlink:href="#m28f1d0f043" x="232.613438" y="469.0375" style="fill: #ffffff; stroke: #ffffff; stroke-width: 0.8"/>
      </g>
     </g>
    </g>
    <g id="xtick_12">
     <g id="line2d_45">
      <path d="M 302.216771 469.0375 
L 302.216771 291.3495 
" clip-path="url(#pa7876398eb)" style="fill: none; stroke-dasharray: 0.8,1.32; stroke-dashoffset: 0; stroke: #ffffff; stroke-width: 0.8"/>
     </g>
     <g id="line2d_46">
      <g>
       <use xlink:href="#m28f1d0f043" x="302.216771" y="469.0375" style="fill: #ffffff; stroke: #ffffff; stroke-width: 0.8"/>
      </g>
     </g>
    </g>
    <g id="xtick_13">
     <g id="line2d_47">
      <path d="M 371.820104 469.0375 
L 371.820104 291.3495 
" clip-path="url(#pa7876398eb)" style="fill: none; stroke-dasharray: 0.8,1.32; stroke-dashoffset: 0; stroke: #ffffff; stroke-width: 0.8"/>
     </g>
     <g id="line2d_48">
      <g>
       <use xlink:href="#m28f1d0f043" x="371.820104" y="469.0375" style="fill: #ffffff; stroke: #ffffff; stroke-width: 0.8"/>
      </g>
     </g>
    </g>
    <g id="xtick_14">
     <g id="line2d_49">
      <path d="M 441.423438 469.0375 
L 441.423438 291.3495 
" clip-path="url(#pa7876398eb)" style="fill: none; stroke-dasharray: 0.8,1.32; stroke-dashoffset: 0; stroke: #ffffff; stroke-width: 0.8"/>
     </g>
     <g id="line2d_50">
      <g>
       <use xlink:href="#m28f1d0f043" x="441.423438" y="469.0375" style="fill: #ffffff; stroke: #ffffff; stroke-width: 0.8"/>
      </g>
     </g>
    </g>
    <g id="text_10">
     <!-- Time -->
     <g style="fill: #ffffff" transform="translate(217.321719 490.058437) scale(0.14 -0.14)">
      <use xlink:href="#ArialMT-54"/>
      <use xlink:href="#ArialMT-69" transform="translate(57.333984 0)"/>
      <use xlink:href="#ArialMT-6d" transform="translate(79.550781 0)"/>
      <use xlink:href="#ArialMT-65" transform="translate(162.851562 0)"/>
     </g>
    </g>
   </g>
   <g id="matplotlib.axis_4">
    <g id="ytick_8">
     <g id="line2d_51">
      <path d="M 23.803438 469.0375 
L 441.423438 469.0375 
" clip-path="url(#pa7876398eb)" style="fill: none; stroke-dasharray: 0.8,1.32; stroke-dashoffset: 0; stroke: #ffffff; stroke-width: 0.8"/>
     </g>
     <g id="line2d_52">
      <g>
       <use xlink:href="#m89cef982ba" x="23.803438" y="469.0375" style="fill: #ffffff; stroke: #ffffff; stroke-width: 0.8"/>
      </g>
     </g>
    </g>
    <g id="ytick_9">
     <g id="line2d_53">
      <path d="M 23.803438 439.422833 
L 441.423438 439.422833 
" clip-path="url(#pa7876398eb)" style="fill: none; stroke-dasharray: 0.8,1.32; stroke-dashoffset: 0; stroke: #ffffff; stroke-width: 0.8"/>
     </g>
     <g id="line2d_54">
      <g>
       <use xlink:href="#m89cef982ba" x="23.803438" y="439.422833" style="fill: #ffffff; stroke: #ffffff; stroke-width: 0.8"/>
      </g>
     </g>
    </g>
    <g id="ytick_10">
     <g id="line2d_55">
      <path d="M 23.803438 409.808167 
L 441.423438 409.808167 
" clip-path="url(#pa7876398eb)" style="fill: none; stroke-dasharray: 0.8,1.32; stroke-dashoffset: 0; stroke: #ffffff; stroke-width: 0.8"/>
     </g>
     <g id="line2d_56">
      <g>
       <use xlink:href="#m89cef982ba" x="23.803438" y="409.808167" style="fill: #ffffff; stroke: #ffffff; stroke-width: 0.8"/>
      </g>
     </g>
    </g>
    <g id="ytick_11">
     <g id="line2d_57">
      <path d="M 23.803438 380.1935 
L 441.423438 380.1935 
" clip-path="url(#pa7876398eb)" style="fill: none; stroke-dasharray: 0.8,1.32; stroke-dashoffset: 0; stroke: #ffffff; stroke-width: 0.8"/>
     </g>
     <g id="line2d_58">
      <g>
       <use xlink:href="#m89cef982ba" x="23.803438" y="380.1935" style="fill: #ffffff; stroke: #ffffff; stroke-width: 0.8"/>
      </g>
     </g>
    </g>
    <g id="ytick_12">
     <g id="line2d_59">
      <path d="M 23.803438 350.578833 
L 441.423438 350.578833 
" clip-path="url(#pa7876398eb)" style="fill: none; stroke-dasharray: 0.8,1.32; stroke-dashoffset: 0; stroke: #ffffff; stroke-width: 0.8"/>
     </g>
     <g id="line2d_60">
      <g>
       <use xlink:href="#m89cef982ba" x="23.803438" y="350.578833" style="fill: #ffffff; stroke: #ffffff; stroke-width: 0.8"/>
      </g>
     </g>
    </g>
    <g id="ytick_13">
     <g id="line2d_61">
      <path d="M 23.803438 320.964167 
L 441.423438 320.964167 
" clip-path="url(#pa7876398eb)" style="fill: none; stroke-dasharray: 0.8,1.32; stroke-dashoffset: 0; stroke: #ffffff; stroke-width: 0.8"/>
     </g>
     <g id="line2d_62">
      <g>
       <use xlink:href="#m89cef982ba" x="23.803438" y="320.964167" style="fill: #ffffff; stroke: #ffffff; stroke-width: 0.8"/>
      </g>
     </g>
    </g>
    <g id="ytick_14">
     <g id="line2d_63">
      <path d="M 23.803438 291.3495 
L 441.423438 291.3495 
" clip-path="url(#pa7876398eb)" style="fill: none; stroke-dasharray: 0.8,1.32; stroke-dashoffset: 0; stroke: #ffffff; stroke-width: 0.8"/>
     </g>
     <g id="line2d_64">
      <g>
       <use xlink:href="#m89cef982ba" x="23.803438" y="291.3495" style="fill: #ffffff; stroke: #ffffff; stroke-width: 0.8"/>
      </g>
     </g>
    </g>
    <g id="text_11">
     <!-- EMW -->
     <g style="fill: #ffffff" transform="translate(10.020937 397.300844) rotate(-90) scale(0.14 -0.14)">
      <use xlink:href="#ArialMT-45"/>
      <use xlink:href="#ArialMT-4d" transform="translate(66.699219 0)"/>
      <use xlink:href="#ArialMT-57" transform="translate(150 0)"/>
     </g>
    </g>
   </g>
   <g id="line2d_65">
    <path d="M 23.803438 320.964167 
L 58.605104 320.964167 
L 93.406771 320.964167 
L 128.208438 320.964167 
L 163.010104 320.964167 
L 197.811771 320.964167 
L 197.811771 320.964167 
L 232.613438 320.964167 
L 267.415104 320.964167 
L 267.415104 320.964167 
L 302.216771 320.964167 
L 337.018438 320.964167 
L 337.018438 320.964167 
L 371.820104 320.964167 
L 441.423438 320.964167 
" clip-path="url(#pa7876398eb)" style="fill: none; stroke-dasharray: 9.25,4; stroke-dashoffset: 0; stroke: #595959; stroke-width: 2.5"/>
   </g>
   <g id="line2d_66">
    <path d="M 23.803438 409.808167 
L 58.605104 409.808167 
L 93.406771 409.808167 
L 128.208438 409.808167 
L 163.010104 409.808167 
L 197.811771 409.808167 
L 197.811771 409.808167 
L 232.613438 409.808167 
L 267.415104 409.808167 
L 267.415104 409.808167 
L 302.216771 409.808167 
L 337.018438 409.808167 
L 337.018438 409.808167 
L 371.820104 409.808167 
L 441.423438 409.808167 
" clip-path="url(#pa7876398eb)" style="fill: none; stroke-dasharray: 9.25,4; stroke-dashoffset: 0; stroke: #ababab; stroke-width: 2.5"/>
   </g>
   <g id="line2d_67">
    <path d="M 23.803438 439.422833 
L 58.605104 439.422833 
L 93.406771 439.422833 
L 128.208438 439.422833 
L 163.010104 433.4999 
L 197.811771 427.576967 
L 197.811771 427.576967 
L 232.613438 421.654033 
L 267.415104 415.7311 
L 267.415104 415.7311 
L 302.216771 409.808167 
L 337.018438 403.885233 
L 337.018438 403.885233 
L 371.820104 397.9623 
L 441.423438 397.9623 
" clip-path="url(#pa7876398eb)" style="fill: none; stroke: #006ba4; stroke-width: 1.5; stroke-linecap: square"/>
   </g>
   <g id="line2d_68">
    <path d="M 23.803438 392.039367 
L 58.605104 392.039367 
L 93.406771 392.039367 
L 128.208438 392.039367 
L 163.010104 386.116433 
L 197.811771 380.1935 
L 197.811771 392.039367 
L 232.613438 386.116433 
L 267.415104 380.1935 
L 267.415104 392.039367 
L 302.216771 386.116433 
L 337.018438 380.1935 
L 337.018438 386.116433 
L 371.820104 380.1935 
L 441.423438 380.1935 
" clip-path="url(#pa7876398eb)" style="fill: none; stroke: #ff800e; stroke-width: 1.5; stroke-linecap: square"/>
   </g>
   <g id="patch_9">
    <path d="M 23.803438 469.0375 
L 23.803438 291.3495 
" style="fill: none; stroke: #ffffff; stroke-width: 0.8; stroke-linejoin: miter; stroke-linecap: square"/>
   </g>
   <g id="patch_10">
    <path d="M 441.423438 469.0375 
L 441.423438 291.3495 
" style="fill: none; stroke: #ffffff; stroke-width: 0.8; stroke-linejoin: miter; stroke-linecap: square"/>
   </g>
   <g id="patch_11">
    <path d="M 23.803438 469.0375 
L 441.423438 469.0375 
" style="fill: none; stroke: #ffffff; stroke-width: 0.8; stroke-linejoin: miter; stroke-linecap: square"/>
   </g>
   <g id="patch_12">
    <path d="M 23.803438 291.3495 
L 441.423438 291.3495 
" style="fill: none; stroke: #ffffff; stroke-width: 0.8; stroke-linejoin: miter; stroke-linecap: square"/>
   </g>
   <g id="text_12">
    <!-- SH Min. -->
    <g style="fill: #595959" transform="translate(23.803438 311.66644) scale(0.14 -0.14)">
     <use xlink:href="#ArialMT-53"/>
     <use xlink:href="#ArialMT-48" transform="translate(66.699219 0)"/>
     <use xlink:href="#ArialMT-20" transform="translate(138.916016 0)"/>
     <use xlink:href="#ArialMT-4d" transform="translate(166.699219 0)"/>
     <use xlink:href="#ArialMT-69" transform="translate(250 0)"/>
     <use xlink:href="#ArialMT-6e" transform="translate(272.216797 0)"/>
     <use xlink:href="#ArialMT-2e" transform="translate(327.832031 0)"/>
    </g>
   </g>
   <g id="text_13">
    <!-- PP -->
    <g style="fill: #ababab" transform="translate(23.803438 425.900111) scale(0.14 -0.14)">
     <use xlink:href="#ArialMT-50"/>
     <use xlink:href="#ArialMT-50" transform="translate(66.699219 0)"/>
    </g>
   </g>
   <g id="text_14">
    <!-- Managed Pressure Cementing (MPC) Job -->
    <g style="fill: #ffffff" transform="translate(65.051719 265.836937) scale(0.18 -0.18)">
     <use xlink:href="#ArialMT-4d"/>
     <use xlink:href="#ArialMT-61" transform="translate(83.300781 0)"/>
     <use xlink:href="#ArialMT-6e" transform="translate(138.916016 0)"/>
     <use xlink:href="#ArialMT-61" transform="translate(194.53125 0)"/>
     <use xlink:href="#ArialMT-67" transform="translate(250.146484 0)"/>
     <use xlink:href="#ArialMT-65" transform="translate(305.761719 0)"/>
     <use xlink:href="#ArialMT-64" transform="translate(361.376953 0)"/>
     <use xlink:href="#ArialMT-20" transform="translate(416.992188 0)"/>
     <use xlink:href="#ArialMT-50" transform="translate(444.775391 0)"/>
     <use xlink:href="#ArialMT-72" transform="translate(511.474609 0)"/>
     <use xlink:href="#ArialMT-65" transform="translate(544.775391 0)"/>
     <use xlink:href="#ArialMT-73" transform="translate(600.390625 0)"/>
     <use xlink:href="#ArialMT-73" transform="translate(650.390625 0)"/>
     <use xlink:href="#ArialMT-75" transform="translate(700.390625 0)"/>
     <use xlink:href="#ArialMT-72" transform="translate(756.005859 0)"/>
     <use xlink:href="#ArialMT-65" transform="translate(789.306641 0)"/>
     <use xlink:href="#ArialMT-20" transform="translate(844.921875 0)"/>
     <use xlink:href="#ArialMT-43" transform="translate(872.705078 0)"/>
     <use xlink:href="#ArialMT-65" transform="translate(944.921875 0)"/>
     <use xlink:href="#ArialMT-6d" transform="translate(1000.537109 0)"/>
     <use xlink:href="#ArialMT-65" transform="translate(1083.837891 0)"/>
     <use xlink:href="#ArialMT-6e" transform="translate(1139.453125 0)"/>
     <use xlink:href="#ArialMT-74" transform="translate(1195.068359 0)"/>
     <use xlink:href="#ArialMT-69" transform="translate(1222.851562 0)"/>
     <use xlink:href="#ArialMT-6e" transform="translate(1245.068359 0)"/>
     <use xlink:href="#ArialMT-67" transform="translate(1300.683594 0)"/>
     <use xlink:href="#ArialMT-20" transform="translate(1356.298828 0)"/>
     <use xlink:href="#ArialMT-28" transform="translate(1384.082031 0)"/>
     <use xlink:href="#ArialMT-4d" transform="translate(1417.382812 0)"/>
     <use xlink:href="#ArialMT-50" transform="translate(1500.683594 0)"/>
     <use xlink:href="#ArialMT-43" transform="translate(1567.382812 0)"/>
     <use xlink:href="#ArialMT-29" transform="translate(1639.599609 0)"/>
     <use xlink:href="#ArialMT-20" transform="translate(1672.900391 0)"/>
     <use xlink:href="#ArialMT-4a" transform="translate(1700.683594 0)"/>
     <use xlink:href="#ArialMT-6f" transform="translate(1750.683594 0)"/>
     <use xlink:href="#ArialMT-62" transform="translate(1806.298828 0)"/>
    </g>
    <!-- (Underbalanced Fluids) -->
    <g style="fill: #ffffff" transform="translate(139.073906 285.3495) scale(0.18 -0.18)">
     <defs>
      <path id="ArialMT-55" d="M 3500 4581 
L 4106 4581 
L 4106 1934 
Q 4106 1244 3950 837 
Q 3794 431 3386 176 
Q 2978 -78 2316 -78 
Q 1672 -78 1262 144 
Q 853 366 678 786 
Q 503 1206 503 1934 
L 503 4581 
L 1109 4581 
L 1109 1938 
Q 1109 1341 1220 1058 
Q 1331 775 1601 622 
Q 1872 469 2263 469 
Q 2931 469 3215 772 
Q 3500 1075 3500 1938 
L 3500 4581 
z
" transform="scale(0.015625)"/>
     </defs>
     <use xlink:href="#ArialMT-28"/>
     <use xlink:href="#ArialMT-55" transform="translate(33.300781 0)"/>
     <use xlink:href="#ArialMT-6e" transform="translate(105.517578 0)"/>
     <use xlink:href="#ArialMT-64" transform="translate(161.132812 0)"/>
     <use xlink:href="#ArialMT-65" transform="translate(216.748047 0)"/>
     <use xlink:href="#ArialMT-72" transform="translate(272.363281 0)"/>
     <use xlink:href="#ArialMT-62" transform="translate(305.664062 0)"/>
     <use xlink:href="#ArialMT-61" transform="translate(361.279297 0)"/>
     <use xlink:href="#ArialMT-6c" transform="translate(416.894531 0)"/>
     <use xlink:href="#ArialMT-61" transform="translate(439.111328 0)"/>
     <use xlink:href="#ArialMT-6e" transform="translate(494.726562 0)"/>
     <use xlink:href="#ArialMT-63" transform="translate(550.341797 0)"/>
     <use xlink:href="#ArialMT-65" transform="translate(600.341797 0)"/>
     <use xlink:href="#ArialMT-64" transform="translate(655.957031 0)"/>
     <use xlink:href="#ArialMT-20" transform="translate(711.572266 0)"/>
     <use xlink:href="#ArialMT-46" transform="translate(739.355469 0)"/>
     <use xlink:href="#ArialMT-6c" transform="translate(800.439453 0)"/>
     <use xlink:href="#ArialMT-75" transform="translate(822.65625 0)"/>
     <use xlink:href="#ArialMT-69" transform="translate(878.271484 0)"/>
     <use xlink:href="#ArialMT-64" transform="translate(900.488281 0)"/>
     <use xlink:href="#ArialMT-73" transform="translate(956.103516 0)"/>
     <use xlink:href="#ArialMT-29" transform="translate(1006.103516 0)"/>
    </g>
   </g>
   <g id="legend_2">
    <g id="patch_13">
     <path d="M 448.423438 355.93075 
L 547.665625 355.93075 
Q 549.665625 355.93075 549.665625 353.93075 
L 549.665625 298.3495 
Q 549.665625 296.3495 547.665625 296.3495 
L 448.423438 296.3495 
Q 446.423438 296.3495 446.423438 298.3495 
L 446.423438 353.93075 
Q 446.423438 355.93075 448.423438 355.93075 
z
" style="fill: #181818; opacity: 0.8; stroke: #cccccc; stroke-linejoin: miter"/>
    </g>
    <g id="line2d_69">
     <path d="M 450.423438 304.007313 
L 460.423438 304.007313 
L 470.423438 304.007313 
" style="fill: none; stroke-dasharray: 9.25,4; stroke-dashoffset: 0; stroke: #595959; stroke-width: 2.5"/>
    </g>
    <g id="text_15">
     <!-- SH Min. -->
     <g style="fill: #ffffff" transform="translate(478.423438 307.507313) scale(0.1 -0.1)">
      <use xlink:href="#ArialMT-53"/>
      <use xlink:href="#ArialMT-48" transform="translate(66.699219 0)"/>
      <use xlink:href="#ArialMT-20" transform="translate(138.916016 0)"/>
      <use xlink:href="#ArialMT-4d" transform="translate(166.699219 0)"/>
      <use xlink:href="#ArialMT-69" transform="translate(250 0)"/>
      <use xlink:href="#ArialMT-6e" transform="translate(272.216797 0)"/>
      <use xlink:href="#ArialMT-2e" transform="translate(327.832031 0)"/>
     </g>
    </g>
    <g id="line2d_70">
     <path d="M 450.423438 318.152625 
L 460.423438 318.152625 
L 470.423438 318.152625 
" style="fill: none; stroke-dasharray: 9.25,4; stroke-dashoffset: 0; stroke: #ababab; stroke-width: 2.5"/>
    </g>
    <g id="text_16">
     <!-- PP -->
     <g style="fill: #ffffff" transform="translate(478.423438 321.652625) scale(0.1 -0.1)">
      <use xlink:href="#ArialMT-50"/>
      <use xlink:href="#ArialMT-50" transform="translate(66.699219 0)"/>
     </g>
    </g>
    <g id="line2d_71">
     <path d="M 450.423438 332.297937 
L 460.423438 332.297937 
L 470.423438 332.297937 
" style="fill: none; stroke: #006ba4; stroke-width: 1.5; stroke-linecap: square"/>
    </g>
    <g id="text_17">
     <!-- ESD, no SBP -->
     <g style="fill: #ffffff" transform="translate(478.423438 335.797937) scale(0.1 -0.1)">
      <defs>
       <path id="ArialMT-2c" d="M 569 0 
L 569 641 
L 1209 641 
L 1209 0 
Q 1209 -353 1084 -570 
Q 959 -788 688 -906 
L 531 -666 
Q 709 -588 793 -436 
Q 878 -284 888 0 
L 569 0 
z
" transform="scale(0.015625)"/>
       <path id="ArialMT-42" d="M 469 0 
L 469 4581 
L 2188 4581 
Q 2713 4581 3030 4442 
Q 3347 4303 3526 4014 
Q 3706 3725 3706 3409 
Q 3706 3116 3547 2856 
Q 3388 2597 3066 2438 
Q 3481 2316 3704 2022 
Q 3928 1728 3928 1328 
Q 3928 1006 3792 729 
Q 3656 453 3456 303 
Q 3256 153 2954 76 
Q 2653 0 2216 0 
L 469 0 
z
M 1075 2656 
L 2066 2656 
Q 2469 2656 2644 2709 
Q 2875 2778 2992 2937 
Q 3109 3097 3109 3338 
Q 3109 3566 3000 3739 
Q 2891 3913 2687 3977 
Q 2484 4041 1991 4041 
L 1075 4041 
L 1075 2656 
z
M 1075 541 
L 2216 541 
Q 2509 541 2628 563 
Q 2838 600 2978 687 
Q 3119 775 3209 942 
Q 3300 1109 3300 1328 
Q 3300 1584 3169 1773 
Q 3038 1963 2805 2039 
Q 2572 2116 2134 2116 
L 1075 2116 
L 1075 541 
z
" transform="scale(0.015625)"/>
      </defs>
      <use xlink:href="#ArialMT-45"/>
      <use xlink:href="#ArialMT-53" transform="translate(66.699219 0)"/>
      <use xlink:href="#ArialMT-44" transform="translate(133.398438 0)"/>
      <use xlink:href="#ArialMT-2c" transform="translate(205.615234 0)"/>
      <use xlink:href="#ArialMT-20" transform="translate(233.398438 0)"/>
      <use xlink:href="#ArialMT-6e" transform="translate(261.181641 0)"/>
      <use xlink:href="#ArialMT-6f" transform="translate(316.796875 0)"/>
      <use xlink:href="#ArialMT-20" transform="translate(372.412109 0)"/>
      <use xlink:href="#ArialMT-53" transform="translate(400.195312 0)"/>
      <use xlink:href="#ArialMT-42" transform="translate(466.894531 0)"/>
      <use xlink:href="#ArialMT-50" transform="translate(533.59375 0)"/>
     </g>
    </g>
    <g id="line2d_72">
     <path d="M 450.423438 346.44325 
L 460.423438 346.44325 
L 470.423438 346.44325 
" style="fill: none; stroke: #ff800e; stroke-width: 1.5; stroke-linecap: square"/>
    </g>
    <g id="text_18">
     <!-- ECD, with SBP -->
     <g style="fill: #ffffff" transform="translate(478.423438 349.94325) scale(0.1 -0.1)">
      <defs>
       <path id="ArialMT-77" d="M 1034 0 
L 19 3319 
L 600 3319 
L 1128 1403 
L 1325 691 
Q 1338 744 1497 1375 
L 2025 3319 
L 2603 3319 
L 3100 1394 
L 3266 759 
L 3456 1400 
L 4025 3319 
L 4572 3319 
L 3534 0 
L 2950 0 
L 2422 1988 
L 2294 2553 
L 1622 0 
L 1034 0 
z
" transform="scale(0.015625)"/>
       <path id="ArialMT-68" d="M 422 0 
L 422 4581 
L 984 4581 
L 984 2938 
Q 1378 3394 1978 3394 
Q 2347 3394 2619 3248 
Q 2891 3103 3008 2847 
Q 3125 2591 3125 2103 
L 3125 0 
L 2563 0 
L 2563 2103 
Q 2563 2525 2380 2717 
Q 2197 2909 1863 2909 
Q 1613 2909 1392 2779 
Q 1172 2650 1078 2428 
Q 984 2206 984 1816 
L 984 0 
L 422 0 
z
" transform="scale(0.015625)"/>
      </defs>
      <use xlink:href="#ArialMT-45"/>
      <use xlink:href="#ArialMT-43" transform="translate(66.699219 0)"/>
      <use xlink:href="#ArialMT-44" transform="translate(138.916016 0)"/>
      <use xlink:href="#ArialMT-2c" transform="translate(211.132812 0)"/>
      <use xlink:href="#ArialMT-20" transform="translate(238.916016 0)"/>
      <use xlink:href="#ArialMT-77" transform="translate(266.699219 0)"/>
      <use xlink:href="#ArialMT-69" transform="translate(338.916016 0)"/>
      <use xlink:href="#ArialMT-74" transform="translate(361.132812 0)"/>
      <use xlink:href="#ArialMT-68" transform="translate(388.916016 0)"/>
      <use xlink:href="#ArialMT-20" transform="translate(444.53125 0)"/>
      <use xlink:href="#ArialMT-53" transform="translate(472.314453 0)"/>
      <use xlink:href="#ArialMT-42" transform="translate(539.013672 0)"/>
      <use xlink:href="#ArialMT-50" transform="translate(605.712891 0)"/>
     </g>
    </g>
   </g>
  </g>
 </g>
 <defs>
  <clipPath id="pba6fedf17b">
   <rect x="23.803438" y="38.6295" width="417.62" height="177.688"/>
  </clipPath>
  <clipPath id="pa7876398eb">
   <rect x="23.803438" y="291.3495" width="417.62" height="177.688"/>
  </clipPath>
 </defs>
</svg>
